%TF.GenerationSoftware,KiCad,Pcbnew,9.0.4*%
%TF.CreationDate,2026-05-26T17:10:02-04:00*%
%TF.ProjectId,HCMS-297X-Backpack,48434d53-2d32-4393-9758-2d4261636b70,rev?*%
%TF.SameCoordinates,Original*%
%TF.FileFunction,Drillmap*%
%TF.FilePolarity,Positive*%
%FSLAX45Y45*%
G04 Gerber Fmt 4.5, Leading zero omitted, Abs format (unit mm)*
G04 Created by KiCad (PCBNEW 9.0.4) date 2026-05-26 17:10:02*
%MOMM*%
%LPD*%
G01*
G04 APERTURE LIST*
%ADD10C,0.050000*%
%ADD11C,0.200000*%
G04 APERTURE END LIST*
D10*
X1083000Y-2151000D02*
X1083000Y-1151000D01*
X6183000Y-1051000D02*
G75*
G02*
X6283000Y-1151000I0J-100000D01*
G01*
X1083000Y-1151000D02*
G75*
G02*
X1183000Y-1051000I100000J0D01*
G01*
X1183000Y-2251000D02*
G75*
G02*
X1083000Y-2151000I0J100000D01*
G01*
X1183000Y-1051000D02*
X6183000Y-1051000D01*
X6283000Y-1151000D02*
X6283000Y-2151000D01*
X6283000Y-2151000D02*
G75*
G02*
X6183000Y-2251000I-100000J0D01*
G01*
X6183000Y-2251000D02*
X1183000Y-2251000D01*
D11*
X1341277Y-2564984D02*
X1341277Y-2364984D01*
X1341277Y-2364984D02*
X1388896Y-2364984D01*
X1388896Y-2364984D02*
X1417467Y-2374508D01*
X1417467Y-2374508D02*
X1436515Y-2393555D01*
X1436515Y-2393555D02*
X1446039Y-2412603D01*
X1446039Y-2412603D02*
X1455562Y-2450698D01*
X1455562Y-2450698D02*
X1455562Y-2479270D01*
X1455562Y-2479270D02*
X1446039Y-2517365D01*
X1446039Y-2517365D02*
X1436515Y-2536412D01*
X1436515Y-2536412D02*
X1417467Y-2555460D01*
X1417467Y-2555460D02*
X1388896Y-2564984D01*
X1388896Y-2564984D02*
X1341277Y-2564984D01*
X1541277Y-2564984D02*
X1541277Y-2431650D01*
X1541277Y-2469746D02*
X1550801Y-2450698D01*
X1550801Y-2450698D02*
X1560324Y-2441174D01*
X1560324Y-2441174D02*
X1579372Y-2431650D01*
X1579372Y-2431650D02*
X1598420Y-2431650D01*
X1665086Y-2564984D02*
X1665086Y-2431650D01*
X1665086Y-2364984D02*
X1655562Y-2374508D01*
X1655562Y-2374508D02*
X1665086Y-2384031D01*
X1665086Y-2384031D02*
X1674610Y-2374508D01*
X1674610Y-2374508D02*
X1665086Y-2364984D01*
X1665086Y-2364984D02*
X1665086Y-2384031D01*
X1788896Y-2564984D02*
X1769848Y-2555460D01*
X1769848Y-2555460D02*
X1760324Y-2536412D01*
X1760324Y-2536412D02*
X1760324Y-2364984D01*
X1893658Y-2564984D02*
X1874610Y-2555460D01*
X1874610Y-2555460D02*
X1865086Y-2536412D01*
X1865086Y-2536412D02*
X1865086Y-2364984D01*
X2122229Y-2564984D02*
X2122229Y-2364984D01*
X2122229Y-2364984D02*
X2188896Y-2507841D01*
X2188896Y-2507841D02*
X2255563Y-2364984D01*
X2255563Y-2364984D02*
X2255563Y-2564984D01*
X2436515Y-2564984D02*
X2436515Y-2460222D01*
X2436515Y-2460222D02*
X2426991Y-2441174D01*
X2426991Y-2441174D02*
X2407944Y-2431650D01*
X2407944Y-2431650D02*
X2369848Y-2431650D01*
X2369848Y-2431650D02*
X2350801Y-2441174D01*
X2436515Y-2555460D02*
X2417467Y-2564984D01*
X2417467Y-2564984D02*
X2369848Y-2564984D01*
X2369848Y-2564984D02*
X2350801Y-2555460D01*
X2350801Y-2555460D02*
X2341277Y-2536412D01*
X2341277Y-2536412D02*
X2341277Y-2517365D01*
X2341277Y-2517365D02*
X2350801Y-2498317D01*
X2350801Y-2498317D02*
X2369848Y-2488793D01*
X2369848Y-2488793D02*
X2417467Y-2488793D01*
X2417467Y-2488793D02*
X2436515Y-2479270D01*
X2531753Y-2431650D02*
X2531753Y-2631650D01*
X2531753Y-2441174D02*
X2550801Y-2431650D01*
X2550801Y-2431650D02*
X2588896Y-2431650D01*
X2588896Y-2431650D02*
X2607944Y-2441174D01*
X2607944Y-2441174D02*
X2617467Y-2450698D01*
X2617467Y-2450698D02*
X2626991Y-2469746D01*
X2626991Y-2469746D02*
X2626991Y-2526889D01*
X2626991Y-2526889D02*
X2617467Y-2545936D01*
X2617467Y-2545936D02*
X2607944Y-2555460D01*
X2607944Y-2555460D02*
X2588896Y-2564984D01*
X2588896Y-2564984D02*
X2550801Y-2564984D01*
X2550801Y-2564984D02*
X2531753Y-2555460D01*
X2712705Y-2545936D02*
X2722229Y-2555460D01*
X2722229Y-2555460D02*
X2712705Y-2564984D01*
X2712705Y-2564984D02*
X2703182Y-2555460D01*
X2703182Y-2555460D02*
X2712705Y-2545936D01*
X2712705Y-2545936D02*
X2712705Y-2564984D01*
X2712705Y-2441174D02*
X2722229Y-2450698D01*
X2722229Y-2450698D02*
X2712705Y-2460222D01*
X2712705Y-2460222D02*
X2703182Y-2450698D01*
X2703182Y-2450698D02*
X2712705Y-2441174D01*
X2712705Y-2441174D02*
X2712705Y-2460222D01*
M02*
