M48
; DRILL file {KiCad 9.0.4} date 2026-05-26T17:10:02-0400
; FORMAT={-:-/ absolute / metric / decimal}
; #@! TF.CreationDate,2026-05-26T17:10:02-04:00
; #@! TF.GenerationSoftware,Kicad,Pcbnew,9.0.4
; #@! TF.FileFunction,Plated,1,2,PTH
FMAT,2
METRIC
; #@! TA.AperFunction,Plated,PTH,ViaDrill
T1C0.300
; #@! TA.AperFunction,Plated,PTH,ComponentDrill
T2C0.710
; #@! TA.AperFunction,Plated,PTH,ComponentDrill
T3C1.000
%
G90
G05
T1
X15.24Y-17.78
X17.78Y-20.32
X20.32Y-17.78
X22.86Y-20.32
X33.02Y-20.32
X35.56Y-15.24
X38.1Y-15.24
X40.64Y-20.32
X43.18Y-15.24
X45.72Y-17.78
X48.26Y-15.24
X48.26Y-20.32
X50.8Y-17.78
X53.34Y-20.32
T2
X21.59Y-12.7
X24.13Y-12.7
X26.67Y-12.7
X26.67Y-20.32
X31.75Y-12.7
X34.29Y-12.7
X36.83Y-12.7
X36.83Y-20.32
X39.37Y-12.7
X41.91Y-12.7
X44.45Y-12.7
X44.45Y-20.32
X49.53Y-12.7
X52.07Y-12.7
T3
X12.7Y-12.7
X12.7Y-15.24
X12.7Y-17.78
X12.7Y-20.32
X60.96Y-12.7
X60.96Y-15.24
X60.96Y-17.78
X60.96Y-20.32
M30
